<svg width="13" height="13" viewBox="0 0 13 13" fill="none" xmlns="http://www.w3.org/2000/svg">
<path d="M7.80469 12.1523L7.20312 12.7539C6.92969 13 6.51953 13 6.27344 12.7539L0.9414 7.44922C0.6953 7.17578 0.6953 6.76562 0.9414 6.51953L6.27344 1.1875C6.51953 0.9414 6.92969 0.9414 7.20312 1.1875L7.80469 1.7891C8.05078 2.0625 8.05078 2.4727 7.80469 2.7461L4.49609 5.89062L12.3438 5.89062C12.7266 5.89062 13 6.16406 13 6.54688V7.42188C13 7.77734 12.7266 8.07812 12.3438 8.07812H4.49609L7.80469 11.1953C8.05078 11.4688 8.07812 11.8789 7.80469 12.1523Z" fill="#1565D8"/>
</svg>
