<svg width="13" height="13" viewBox="0 0 13 13" fill="none" xmlns="http://www.w3.org/2000/svg">
<path d="M5.19531 0.847656L5.79688 0.246094C6.07031 0 6.48047 0 6.72656 0.246094L12.0586 5.55078C12.3047 5.82422 12.3047 6.23438 12.0586 6.48047L6.72656 11.8125C6.48047 12.0586 6.07031 12.0586 5.79688 11.8125L5.19531 11.2109C4.94922 10.9375 4.94922 10.5273 5.19531 10.2539L8.50391 7.10938H0.65625C0.273438 7.10938 0 6.83594 0 6.45312V5.57812C0 5.22266 0.273438 4.92188 0.65625 4.92188H8.50391L5.19531 1.80469C4.94922 1.53125 4.92188 1.12109 5.19531 0.847656Z" fill="#1565D8"/>
</svg>
