<svg width="91" height="31" viewBox="0 0 91 31" fill="none" xmlns="http://www.w3.org/2000/svg">
<g filter="url(#filter0_d_35_13)">
<circle cx="10.0935" cy="14.0935" r="10.0935" fill="#2188E7" fill-opacity="0.5" shape-rendering="crispEdges"/>
<circle cx="10.0935" cy="14.0935" r="9.88318" stroke="white" stroke-width="0.420561" shape-rendering="crispEdges"/>
</g>
<g filter="url(#filter1_d_35_13)">
<circle cx="23.5515" cy="14.0935" r="10.0935" fill="#2188E7" fill-opacity="0.5" shape-rendering="crispEdges"/>
<circle cx="23.5515" cy="14.0935" r="9.88318" stroke="white" stroke-width="0.420561" shape-rendering="crispEdges"/>
</g>
<path d="M51.756 14.5935V7.25281H53.0858V13.4788H56.3189V14.5935H51.756ZM63.7465 10.9232C63.7465 11.7141 63.5983 12.3915 63.302 12.9555C63.0081 13.517 62.6067 13.9471 62.0977 14.2458C61.5911 14.5445 61.0164 14.6939 60.3736 14.6939C59.7309 14.6939 59.155 14.5445 58.646 14.2458C58.1394 13.9447 57.738 13.5134 57.4417 12.9519C57.1478 12.388 57.0008 11.7117 57.0008 10.9232C57.0008 10.1322 57.1478 9.45597 57.4417 8.89443C57.738 8.3305 58.1394 7.89918 58.646 7.60049C59.155 7.30179 59.7309 7.15245 60.3736 7.15245C61.0164 7.15245 61.5911 7.30179 62.0977 7.60049C62.6067 7.89918 63.0081 8.3305 63.302 8.89443C63.5983 9.45597 63.7465 10.1322 63.7465 10.9232ZM62.4095 10.9232C62.4095 10.3664 62.3223 9.89685 62.1479 9.51452C61.9758 9.1298 61.7369 8.83947 61.431 8.64353C61.1252 8.44519 60.7727 8.34603 60.3736 8.34603C59.9746 8.34603 59.6221 8.44519 59.3163 8.64353C59.0104 8.83947 58.7703 9.1298 58.5958 9.51452C58.4238 9.89685 58.3377 10.3664 58.3377 10.9232C58.3377 11.4799 58.4238 11.9507 58.5958 12.3354C58.7703 12.7177 59.0104 13.008 59.3163 13.2064C59.6221 13.4023 59.9746 13.5003 60.3736 13.5003C60.7727 13.5003 61.1252 13.4023 61.431 13.2064C61.7369 13.008 61.9758 12.7177 62.1479 12.3354C62.3223 11.9507 62.4095 11.4799 62.4095 10.9232ZM69.9214 9.59696C69.8617 9.4034 69.7792 9.23016 69.6741 9.07723C69.5713 8.92191 69.4471 8.78929 69.3013 8.67937C69.1579 8.56945 68.9931 8.48701 68.8067 8.43205C68.6203 8.3747 68.4172 8.34603 68.1973 8.34603C67.8031 8.34603 67.4518 8.44519 67.1435 8.64353C66.8353 8.84186 66.5927 9.13338 66.4159 9.5181C66.2415 9.90043 66.1543 10.3664 66.1543 10.916C66.1543 11.4704 66.2415 11.9399 66.4159 12.3246C66.5904 12.7093 66.8329 13.0021 67.1435 13.2028C67.4542 13.4011 67.815 13.5003 68.226 13.5003C68.5988 13.5003 68.9214 13.4286 69.1938 13.2852C69.4686 13.1419 69.68 12.9387 69.8282 12.6759C69.9764 12.4107 70.0504 12.1 70.0504 11.744L70.3515 11.7906H68.3586V10.7511H71.3372V11.6329C71.3372 12.2613 71.2034 12.8049 70.9358 13.2637C70.6681 13.7225 70.3001 14.0762 69.8318 14.3247C69.3634 14.5708 68.8258 14.6939 68.2188 14.6939C67.5426 14.6939 66.9488 14.5421 66.4374 14.2387C65.9285 13.9328 65.5306 13.4991 65.2438 12.9375C64.9595 12.3736 64.8173 11.7045 64.8173 10.9303C64.8173 10.3377 64.9009 9.80843 65.0682 9.34247C65.2379 8.87651 65.4744 8.48104 65.7779 8.15606C66.0814 7.82869 66.4374 7.58018 66.846 7.41052C67.2547 7.23847 67.6991 7.15245 68.1794 7.15245C68.5856 7.15245 68.9644 7.21219 69.3156 7.33166C69.6669 7.44875 69.9787 7.61602 70.2511 7.83347C70.5259 8.05092 70.7518 8.30899 70.9286 8.60768C71.1054 8.90638 71.2213 9.23614 71.2763 9.59696H69.9214ZM79.1824 10.9232C79.1824 11.7141 79.0342 12.3915 78.7379 12.9555C78.444 13.517 78.0426 13.9471 77.5336 14.2458C77.027 14.5445 76.4523 14.6939 75.8095 14.6939C75.1668 14.6939 74.5909 14.5445 74.0819 14.2458C73.5753 13.9447 73.1739 13.5134 72.8776 12.9519C72.5837 12.388 72.4367 11.7117 72.4367 10.9232C72.4367 10.1322 72.5837 9.45597 72.8776 8.89443C73.1739 8.3305 73.5753 7.89918 74.0819 7.60049C74.5909 7.30179 75.1668 7.15245 75.8095 7.15245C76.4523 7.15245 77.027 7.30179 77.5336 7.60049C78.0426 7.89918 78.444 8.3305 78.7379 8.89443C79.0342 9.45597 79.1824 10.1322 79.1824 10.9232ZM77.8454 10.9232C77.8454 10.3664 77.7582 9.89685 77.5838 9.51452C77.4117 9.1298 77.1728 8.83947 76.8669 8.64353C76.5611 8.44519 76.2086 8.34603 75.8095 8.34603C75.4105 8.34603 75.058 8.44519 74.7522 8.64353C74.4463 8.83947 74.2062 9.1298 74.0317 9.51452C73.8597 9.89685 73.7736 10.3664 73.7736 10.9232C73.7736 11.4799 73.8597 11.9507 74.0317 12.3354C74.2062 12.7177 74.4463 13.008 74.7522 13.2064C75.058 13.4023 75.4105 13.5003 75.8095 13.5003C76.2086 13.5003 76.5611 13.4023 76.8669 13.2064C77.1728 13.008 77.4117 12.7177 77.5838 12.3354C77.7582 11.9507 77.8454 11.4799 77.8454 10.9232Z" fill="black"/>
<path d="M40.8355 21.5935V18.8407H41.3342V21.1755H42.5466V21.5935H40.8355ZM43.8584 21.6338C43.6568 21.6338 43.4821 21.5895 43.3342 21.5008C43.1864 21.412 43.0717 21.2879 42.9901 21.1284C42.9095 20.9689 42.8691 20.7826 42.8691 20.5693C42.8691 20.356 42.9095 20.1692 42.9901 20.0088C43.0717 19.8484 43.1864 19.7238 43.3342 19.6351C43.4821 19.5464 43.6568 19.5021 43.8584 19.5021C44.06 19.5021 44.2348 19.5464 44.3826 19.6351C44.5305 19.7238 44.6447 19.8484 44.7254 20.0088C44.8069 20.1692 44.8477 20.356 44.8477 20.5693C44.8477 20.7826 44.8069 20.9689 44.7254 21.1284C44.6447 21.2879 44.5305 21.412 44.3826 21.5008C44.2348 21.5895 44.06 21.6338 43.8584 21.6338ZM43.8611 21.244C43.9704 21.244 44.0618 21.214 44.1353 21.154C44.2088 21.093 44.2635 21.0115 44.2993 20.9093C44.336 20.8072 44.3544 20.6934 44.3544 20.5679C44.3544 20.4416 44.336 20.3273 44.2993 20.2252C44.2635 20.1221 44.2088 20.0401 44.1353 19.9792C44.0618 19.9183 43.9704 19.8878 43.8611 19.8878C43.7491 19.8878 43.6559 19.9183 43.5815 19.9792C43.5081 20.0401 43.4529 20.1221 43.4162 20.2252C43.3804 20.3273 43.3624 20.4416 43.3624 20.5679C43.3624 20.6934 43.3804 20.8072 43.4162 20.9093C43.4529 21.0115 43.5081 21.093 43.5815 21.154C43.6559 21.214 43.7491 21.244 43.8611 21.244ZM45.2607 21.5935V19.5289H45.7325V19.873H45.754C45.7916 19.7539 45.8561 19.662 45.9475 19.5975C46.0398 19.5321 46.1451 19.4994 46.2634 19.4994C46.2903 19.4994 46.3203 19.5007 46.3534 19.5034C46.3875 19.5052 46.4157 19.5083 46.4381 19.5128V19.9604C46.4175 19.9532 46.3848 19.947 46.34 19.9416C46.2961 19.9353 46.2535 19.9322 46.2123 19.9322C46.1236 19.9322 46.0439 19.9514 45.9731 19.99C45.9032 20.0276 45.8481 20.08 45.8077 20.1472C45.7674 20.2144 45.7472 20.2919 45.7472 20.3798V21.5935H45.2607ZM47.5904 21.6338C47.3834 21.6338 47.2046 21.5908 47.0541 21.5048C46.9044 21.4179 46.7893 21.2951 46.7086 21.1365C46.628 20.977 46.5877 20.7893 46.5877 20.5733C46.5877 20.3609 46.628 20.1746 46.7086 20.0142C46.7902 19.8529 46.904 19.7274 47.05 19.6378C47.1961 19.5473 47.3677 19.5021 47.5648 19.5021C47.6921 19.5021 47.8122 19.5227 47.9251 19.5639C48.0389 19.6042 48.1392 19.6669 48.2261 19.7521C48.314 19.8372 48.383 19.9456 48.4331 20.0773C48.4833 20.2082 48.5084 20.3641 48.5084 20.5451V20.6943H46.8162V20.3663H48.042C48.0411 20.2731 48.0209 20.1902 47.9815 20.1177C47.9421 20.0442 47.887 19.9864 47.8162 19.9443C47.7463 19.9022 47.6648 19.8811 47.5716 19.8811C47.4721 19.8811 47.3847 19.9053 47.3095 19.9537C47.2342 20.0012 47.1755 20.0639 47.1334 20.1419C47.0922 20.2189 47.0711 20.3036 47.0702 20.3959V20.6822C47.0702 20.8023 47.0922 20.9053 47.1361 20.9913C47.18 21.0765 47.2414 21.1419 47.3202 21.1876C47.3991 21.2324 47.4914 21.2548 47.5971 21.2548C47.6679 21.2548 47.732 21.2449 47.7893 21.2252C47.8467 21.2046 47.8964 21.1746 47.9385 21.1352C47.9806 21.0957 48.0124 21.0469 48.0339 20.9887L48.4883 21.0397C48.4596 21.1598 48.4049 21.2646 48.3243 21.3543C48.2445 21.443 48.1424 21.512 48.0178 21.5612C47.8933 21.6096 47.7508 21.6338 47.5904 21.6338ZM48.92 21.5935V19.5289H49.3851V19.8798H49.4093C49.4523 19.7615 49.5236 19.6692 49.623 19.6029C49.7225 19.5357 49.8412 19.5021 49.9792 19.5021C50.119 19.5021 50.2368 19.5361 50.3327 19.6042C50.4295 19.6714 50.4976 19.7633 50.537 19.8798H50.5585C50.6042 19.7651 50.6813 19.6737 50.7897 19.6055C50.899 19.5366 51.0285 19.5021 51.1782 19.5021C51.3681 19.5021 51.5232 19.5621 51.6432 19.6822C51.7633 19.8022 51.8234 19.9774 51.8234 20.2077V21.5935H51.3354V20.283C51.3354 20.1548 51.3014 20.0612 51.2333 20.0021C51.1652 19.942 51.0818 19.912 50.9833 19.912C50.8659 19.912 50.774 19.9487 50.7077 20.0222C50.6423 20.0948 50.6096 20.1893 50.6096 20.3058V21.5935H50.1324V20.2628C50.1324 20.1562 50.1002 20.0711 50.0357 20.0074C49.972 19.9438 49.8887 19.912 49.7857 19.912C49.7158 19.912 49.6521 19.9299 49.5948 19.9658C49.5374 20.0007 49.4917 20.0505 49.4577 20.115C49.4236 20.1786 49.4066 20.253 49.4066 20.3381V21.5935H48.92ZM53.2558 21.5935V19.5289H53.7424V21.5935H53.2558ZM53.5005 19.2359C53.4234 19.2359 53.3571 19.2104 53.3015 19.1593C53.246 19.1073 53.2182 19.0451 53.2182 18.9725C53.2182 18.899 53.246 18.8367 53.3015 18.7856C53.3571 18.7337 53.4234 18.7077 53.5005 18.7077C53.5784 18.7077 53.6447 18.7337 53.6994 18.7856C53.755 18.8367 53.7827 18.899 53.7827 18.9725C53.7827 19.0451 53.755 19.1073 53.6994 19.1593C53.6447 19.2104 53.5784 19.2359 53.5005 19.2359ZM54.2428 22.3677V19.5289H54.7213V19.8703H54.7495C54.7746 19.8202 54.81 19.7668 54.8557 19.7104C54.9014 19.653 54.9632 19.6042 55.0412 19.5639C55.1191 19.5227 55.2186 19.5021 55.3396 19.5021C55.4991 19.5021 55.6429 19.5428 55.771 19.6244C55.9001 19.705 56.0022 19.8246 56.0775 19.9832C56.1537 20.141 56.1917 20.3345 56.1917 20.5639C56.1917 20.7906 56.1546 20.9833 56.0802 21.1419C56.0058 21.3005 55.9046 21.4215 55.7764 21.5048C55.6483 21.5881 55.5031 21.6298 55.3409 21.6298C55.2226 21.6298 55.1245 21.6101 55.0466 21.5707C54.9686 21.5312 54.9059 21.4837 54.8584 21.4282C54.8118 21.3717 54.7755 21.3184 54.7495 21.2682H54.7293V22.3677H54.2428ZM54.7199 20.5612C54.7199 20.6947 54.7388 20.8117 54.7764 20.912C54.8149 21.0124 54.87 21.0908 54.9417 21.1473C55.0143 21.2028 55.1021 21.2306 55.2052 21.2306C55.3127 21.2306 55.4027 21.2019 55.4753 21.1446C55.5479 21.0863 55.6026 21.007 55.6393 20.9067C55.6769 20.8054 55.6958 20.6903 55.6958 20.5612C55.6958 20.4331 55.6774 20.3193 55.6407 20.2198C55.6039 20.1203 55.5493 20.0424 55.4767 19.9859C55.4041 19.9295 55.3136 19.9013 55.2052 19.9013C55.1012 19.9013 55.013 19.9286 54.9404 19.9832C54.8678 20.0379 54.8127 20.1145 54.775 20.2131C54.7383 20.3117 54.7199 20.4277 54.7199 20.5612ZM58.2402 20.0746L57.7966 20.123C57.7841 20.0782 57.7621 20.0361 57.7308 19.9967C57.7003 19.9573 57.6591 19.9255 57.6071 19.9013C57.5551 19.8771 57.4915 19.865 57.4162 19.865C57.315 19.865 57.2299 19.8869 57.1609 19.9308C57.0928 19.9747 57.0592 20.0316 57.0601 20.1015C57.0592 20.1616 57.0811 20.2104 57.1259 20.248C57.1716 20.2857 57.2469 20.3166 57.3517 20.3408L57.7039 20.4161C57.8992 20.4582 58.0444 20.5249 58.1394 20.6163C58.2353 20.7077 58.2836 20.8274 58.2845 20.9752C58.2836 21.1051 58.2456 21.2198 58.1703 21.3193C58.0959 21.4179 57.9924 21.4949 57.8598 21.5505C57.7272 21.6061 57.5748 21.6338 57.4028 21.6338C57.1501 21.6338 56.9467 21.581 56.7926 21.4752C56.6384 21.3686 56.5466 21.2203 56.517 21.0303L56.9915 20.9846C57.013 21.0778 57.0587 21.1482 57.1286 21.1956C57.1985 21.2431 57.2894 21.2669 57.4015 21.2669C57.5171 21.2669 57.6098 21.2431 57.6797 21.1956C57.7505 21.1482 57.7859 21.0895 57.7859 21.0196C57.7859 20.9604 57.763 20.9116 57.7173 20.8731C57.6725 20.8345 57.6026 20.805 57.5076 20.7843L57.1555 20.7104C56.9574 20.6692 56.8109 20.5998 56.716 20.5021C56.621 20.4035 56.5739 20.279 56.5748 20.1284C56.5739 20.0012 56.6084 19.891 56.6783 19.7978C56.7491 19.7037 56.8472 19.6311 56.9727 19.58C57.099 19.528 57.2446 19.5021 57.4095 19.5021C57.6515 19.5021 57.8419 19.5536 57.9808 19.6566C58.1206 19.7597 58.207 19.899 58.2402 20.0746ZM60.0017 20.7252V19.5289H60.4882V21.5935H60.0164V21.2266H59.9949C59.9483 21.3422 59.8717 21.4367 59.7651 21.5102C59.6594 21.5836 59.529 21.6204 59.374 21.6204C59.2386 21.6204 59.119 21.5904 59.0151 21.5303C58.912 21.4694 58.8314 21.3811 58.7731 21.2655C58.7149 21.149 58.6858 21.0084 58.6858 20.8435V19.5289H59.1723V20.7682C59.1723 20.899 59.2082 21.003 59.2799 21.0801C59.3516 21.1571 59.4456 21.1956 59.5621 21.1956C59.6338 21.1956 59.7033 21.1782 59.7705 21.1432C59.8377 21.1083 59.8928 21.0563 59.9358 20.9873C59.9797 20.9174 60.0017 20.83 60.0017 20.7252ZM60.9886 21.5935V19.5289H61.4536V19.8798H61.4778C61.5209 19.7615 61.5921 19.6692 61.6916 19.6029C61.791 19.5357 61.9098 19.5021 62.0477 19.5021C62.1875 19.5021 62.3054 19.5361 62.4013 19.6042C62.498 19.6714 62.5661 19.7633 62.6056 19.8798H62.6271C62.6728 19.7651 62.7498 19.6737 62.8583 19.6055C62.9676 19.5366 63.0971 19.5021 63.2467 19.5021C63.4367 19.5021 63.5917 19.5621 63.7118 19.6822C63.8318 19.8022 63.8919 19.9774 63.8919 20.2077V21.5935H63.404V20.283C63.404 20.1548 63.3699 20.0612 63.3018 20.0021C63.2337 19.942 63.1504 19.912 63.0518 19.912C62.9344 19.912 62.8426 19.9487 62.7763 20.0222C62.7108 20.0948 62.6781 20.1893 62.6781 20.3058V21.5935H62.201V20.2628C62.201 20.1562 62.1687 20.0711 62.1042 20.0074C62.0406 19.9438 61.9572 19.912 61.8542 19.912C61.7843 19.912 61.7207 19.9299 61.6633 19.9658C61.606 20.0007 61.5603 20.0505 61.5262 20.115C61.4922 20.1786 61.4752 20.253 61.4752 20.3381V21.5935H60.9886ZM66.0905 21.6298C65.9283 21.6298 65.7832 21.5881 65.655 21.5048C65.5269 21.4215 65.4256 21.3005 65.3513 21.1419C65.2769 20.9833 65.2397 20.7906 65.2397 20.5639C65.2397 20.3345 65.2773 20.141 65.3526 19.9832C65.4288 19.8246 65.5314 19.705 65.6604 19.6244C65.7894 19.5428 65.9333 19.5021 66.0919 19.5021C66.2128 19.5021 66.3123 19.5227 66.3903 19.5639C66.4682 19.6042 66.5301 19.653 66.5758 19.7104C66.6215 19.7668 66.6569 19.8202 66.6819 19.8703H66.7021V18.8407H67.19V21.5935H66.7115V21.2682H66.6819C66.6569 21.3184 66.6206 21.3717 66.5731 21.4282C66.5256 21.4837 66.4629 21.5312 66.3849 21.5707C66.3069 21.6101 66.2088 21.6298 66.0905 21.6298ZM66.2263 21.2306C66.3293 21.2306 66.4172 21.2028 66.4897 21.1473C66.5623 21.0908 66.6174 21.0124 66.6551 20.912C66.6927 20.8117 66.7115 20.6947 66.7115 20.5612C66.7115 20.4277 66.6927 20.3117 66.6551 20.2131C66.6183 20.1145 66.5637 20.0379 66.4911 19.9832C66.4194 19.9286 66.3311 19.9013 66.2263 19.9013C66.1179 19.9013 66.0274 19.9295 65.9548 19.9859C65.8822 20.0424 65.8275 20.1203 65.7908 20.2198C65.7541 20.3193 65.7357 20.4331 65.7357 20.5612C65.7357 20.6903 65.7541 20.8054 65.7908 20.9067C65.8284 21.007 65.8835 21.0863 65.9561 21.1446C66.0296 21.2019 66.1197 21.2306 66.2263 21.2306ZM68.6091 21.6338C68.4075 21.6338 68.2327 21.5895 68.0849 21.5008C67.937 21.412 67.8223 21.2879 67.7408 21.1284C67.6601 20.9689 67.6198 20.7826 67.6198 20.5693C67.6198 20.356 67.6601 20.1692 67.7408 20.0088C67.8223 19.8484 67.937 19.7238 68.0849 19.6351C68.2327 19.5464 68.4075 19.5021 68.6091 19.5021C68.8107 19.5021 68.9854 19.5464 69.1333 19.6351C69.2811 19.7238 69.3954 19.8484 69.476 20.0088C69.5576 20.1692 69.5984 20.356 69.5984 20.5693C69.5984 20.7826 69.5576 20.9689 69.476 21.1284C69.3954 21.2879 69.2811 21.412 69.1333 21.5008C68.9854 21.5895 68.8107 21.6338 68.6091 21.6338ZM68.6118 21.244C68.7211 21.244 68.8125 21.214 68.886 21.154C68.9594 21.093 69.0141 21.0115 69.05 20.9093C69.0867 20.8072 69.1051 20.6934 69.1051 20.5679C69.1051 20.4416 69.0867 20.3273 69.05 20.2252C69.0141 20.1221 68.9594 20.0401 68.886 19.9792C68.8125 19.9183 68.7211 19.8878 68.6118 19.8878C68.4998 19.8878 68.4066 19.9183 68.3322 19.9792C68.2587 20.0401 68.2036 20.1221 68.1669 20.2252C68.131 20.3273 68.1131 20.4416 68.1131 20.5679C68.1131 20.6934 68.131 20.8072 68.1669 20.9093C68.2036 21.0115 68.2587 21.093 68.3322 21.154C68.4066 21.214 68.4998 21.244 68.6118 21.244ZM70.4979 18.8407V21.5935H70.0113V18.8407H70.4979ZM71.8988 21.6338C71.6972 21.6338 71.5225 21.5895 71.3746 21.5008C71.2268 21.412 71.1121 21.2879 71.0305 21.1284C70.9499 20.9689 70.9095 20.7826 70.9095 20.5693C70.9095 20.356 70.9499 20.1692 71.0305 20.0088C71.1121 19.8484 71.2268 19.7238 71.3746 19.6351C71.5225 19.5464 71.6972 19.5021 71.8988 19.5021C72.1004 19.5021 72.2752 19.5464 72.423 19.6351C72.5709 19.7238 72.6851 19.8484 72.7658 20.0088C72.8473 20.1692 72.8881 20.356 72.8881 20.5693C72.8881 20.7826 72.8473 20.9689 72.7658 21.1284C72.6851 21.2879 72.5709 21.412 72.423 21.5008C72.2752 21.5895 72.1004 21.6338 71.8988 21.6338ZM71.9015 21.244C72.0108 21.244 72.1022 21.214 72.1757 21.154C72.2492 21.093 72.3038 21.0115 72.3397 20.9093C72.3764 20.8072 72.3948 20.6934 72.3948 20.5679C72.3948 20.4416 72.3764 20.3273 72.3397 20.2252C72.3038 20.1221 72.2492 20.0401 72.1757 19.9792C72.1022 19.9183 72.0108 19.8878 71.9015 19.8878C71.7895 19.8878 71.6963 19.9183 71.6219 19.9792C71.5485 20.0401 71.4933 20.1221 71.4566 20.2252C71.4208 20.3273 71.4028 20.4416 71.4028 20.5679C71.4028 20.6934 71.4208 20.8072 71.4566 20.9093C71.4933 21.0115 71.5485 21.093 71.6219 21.154C71.6963 21.214 71.7895 21.244 71.9015 21.244ZM73.3011 21.5935V19.5289H73.7729V19.873H73.7944C73.832 19.7539 73.8965 19.662 73.9879 19.5975C74.0802 19.5321 74.1855 19.4994 74.3038 19.4994C74.3307 19.4994 74.3607 19.5007 74.3938 19.5034C74.4279 19.5052 74.4561 19.5083 74.4785 19.5128V19.9604C74.4579 19.9532 74.4252 19.947 74.3804 19.9416C74.3365 19.9353 74.2939 19.9322 74.2527 19.9322C74.164 19.9322 74.0842 19.9514 74.0135 19.99C73.9436 20.0276 73.8885 20.08 73.8481 20.1472C73.8078 20.2144 73.7876 20.2919 73.7876 20.3798V21.5935H73.3011ZM77.3724 20.0746L76.9289 20.123C76.9163 20.0782 76.8944 20.0361 76.863 19.9967C76.8325 19.9573 76.7913 19.9255 76.7393 19.9013C76.6874 19.8771 76.6237 19.865 76.5485 19.865C76.4472 19.865 76.3621 19.8869 76.2931 19.9308C76.225 19.9747 76.1914 20.0316 76.1923 20.1015C76.1914 20.1616 76.2133 20.2104 76.2581 20.248C76.3038 20.2857 76.3791 20.3166 76.484 20.3408L76.8361 20.4161C77.0315 20.4582 77.1766 20.5249 77.2716 20.6163C77.3675 20.7077 77.4159 20.8274 77.4168 20.9752C77.4159 21.1051 77.3778 21.2198 77.3025 21.3193C77.2281 21.4179 77.1247 21.4949 76.992 21.5505C76.8594 21.6061 76.7071 21.6338 76.535 21.6338C76.2823 21.6338 76.0789 21.581 75.9248 21.4752C75.7707 21.3686 75.6788 21.2203 75.6493 21.0303L76.1237 20.9846C76.1452 21.0778 76.1909 21.1482 76.2608 21.1956C76.3307 21.2431 76.4217 21.2669 76.5337 21.2669C76.6493 21.2669 76.742 21.2431 76.8119 21.1956C76.8827 21.1482 76.9181 21.0895 76.9181 21.0196C76.9181 20.9604 76.8953 20.9116 76.8496 20.8731C76.8047 20.8345 76.7349 20.805 76.6399 20.7843L76.2877 20.7104C76.0897 20.6692 75.9432 20.5998 75.8482 20.5021C75.7532 20.4035 75.7062 20.279 75.707 20.1284C75.7062 20.0012 75.7407 19.891 75.8105 19.7978C75.8813 19.7037 75.9795 19.6311 76.1049 19.58C76.2313 19.528 76.3769 19.5021 76.5417 19.5021C76.7837 19.5021 76.9741 19.5536 77.113 19.6566C77.2528 19.7597 77.3393 19.899 77.3724 20.0746ZM77.818 21.5935V19.5289H78.3046V21.5935H77.818ZM78.0626 19.2359C77.9856 19.2359 77.9193 19.2104 77.8637 19.1593C77.8081 19.1073 77.7804 19.0451 77.7804 18.9725C77.7804 18.899 77.8081 18.8367 77.8637 18.7856C77.9193 18.7337 77.9856 18.7077 78.0626 18.7077C78.1406 18.7077 78.2069 18.7337 78.2616 18.7856C78.3171 18.8367 78.3449 18.899 78.3449 18.9725C78.3449 19.0451 78.3171 19.1073 78.2616 19.1593C78.2069 19.2104 78.1406 19.2359 78.0626 19.2359ZM79.8359 19.5289V19.9053H78.649V19.5289H79.8359ZM78.942 19.0343H79.4286V20.9725C79.4286 21.0379 79.4384 21.0881 79.4582 21.1231C79.4788 21.1571 79.5057 21.1804 79.5388 21.193C79.572 21.2055 79.6087 21.2118 79.649 21.2118C79.6795 21.2118 79.7073 21.2095 79.7324 21.2051C79.7583 21.2006 79.7781 21.1965 79.7915 21.193L79.8735 21.5733C79.8475 21.5823 79.8103 21.5922 79.7619 21.6029C79.7144 21.6137 79.6562 21.6199 79.5872 21.6217C79.4653 21.6253 79.3556 21.6069 79.2579 21.5666C79.1602 21.5254 79.0827 21.4618 79.0254 21.3758C78.9689 21.2897 78.9411 21.1822 78.942 21.0532V19.0343ZM81.7758 21.6352C81.6449 21.6352 81.5271 21.6119 81.4223 21.5653C81.3183 21.5178 81.2359 21.4479 81.1749 21.3556C81.1149 21.2633 81.0849 21.1495 81.0849 21.0142C81.0849 20.8977 81.1064 20.8014 81.1494 20.7252C81.1924 20.649 81.2511 20.5881 81.3255 20.5424C81.3999 20.4967 81.4836 20.4622 81.5768 20.4389C81.6709 20.4147 81.7681 20.3972 81.8685 20.3865C81.9895 20.3739 82.0876 20.3627 82.1629 20.3529C82.2381 20.3421 82.2928 20.326 82.3269 20.3045C82.3618 20.2821 82.3793 20.2476 82.3793 20.201V20.1929C82.3793 20.0917 82.3493 20.0133 82.2892 19.9577C82.2292 19.9022 82.1427 19.8744 82.0298 19.8744C81.9106 19.8744 81.8161 19.9004 81.7462 19.9523C81.6772 20.0043 81.6306 20.0657 81.6064 20.1365L81.1521 20.072C81.1879 19.9465 81.2471 19.8417 81.3295 19.7574C81.412 19.6723 81.5128 19.6087 81.6319 19.5666C81.7511 19.5236 81.8828 19.5021 82.0271 19.5021C82.1266 19.5021 82.2256 19.5137 82.3242 19.537C82.4227 19.5603 82.5128 19.5988 82.5943 19.6526C82.6759 19.7055 82.7413 19.7776 82.7906 19.869C82.8408 19.9604 82.8658 20.0746 82.8658 20.2117V21.5935H82.3981V21.3099H82.382C82.3524 21.3672 82.3107 21.421 82.257 21.4712C82.2041 21.5205 82.1373 21.5604 82.0567 21.5908C81.9769 21.6204 81.8833 21.6352 81.7758 21.6352ZM81.9021 21.2776C81.9998 21.2776 82.0845 21.2584 82.1561 21.2198C82.2278 21.1804 82.2829 21.1284 82.3215 21.0639C82.3609 20.9994 82.3806 20.9291 82.3806 20.8529V20.6096C82.3654 20.6222 82.3394 20.6338 82.3027 20.6446C82.2668 20.6553 82.2265 20.6647 82.1817 20.6728C82.1369 20.6808 82.0925 20.688 82.0486 20.6943C82.0047 20.7006 81.9666 20.7059 81.9344 20.7104C81.8618 20.7203 81.7968 20.7364 81.7395 20.7588C81.6821 20.7812 81.6369 20.8126 81.6037 20.8529C81.5706 20.8923 81.554 20.9434 81.554 21.0061C81.554 21.0957 81.5867 21.1634 81.6521 21.2091C81.7175 21.2548 81.8009 21.2776 81.9021 21.2776ZM83.3551 21.5935V19.5289H83.8202V19.8798H83.8444C83.8874 19.7615 83.9586 19.6692 84.0581 19.6029C84.1575 19.5357 84.2763 19.5021 84.4143 19.5021C84.5541 19.5021 84.6719 19.5361 84.7678 19.6042C84.8646 19.6714 84.9327 19.7633 84.9721 19.8798H84.9936C85.0393 19.7651 85.1164 19.6737 85.2248 19.6055C85.3341 19.5366 85.4636 19.5021 85.6132 19.5021C85.8032 19.5021 85.9582 19.5621 86.0783 19.6822C86.1984 19.8022 86.2584 19.9774 86.2584 20.2077V21.5935H85.7705V20.283C85.7705 20.1548 85.7364 20.0612 85.6683 20.0021C85.6002 19.942 85.5169 19.912 85.4183 19.912C85.3009 19.912 85.2091 19.9487 85.1428 20.0222C85.0774 20.0948 85.0447 20.1893 85.0447 20.3058V21.5935H84.5675V20.2628C84.5675 20.1562 84.5352 20.0711 84.4707 20.0074C84.4071 19.9438 84.3238 19.912 84.2207 19.912C84.1508 19.912 84.0872 19.9299 84.0299 19.9658C83.9725 20.0007 83.9268 20.0505 83.8928 20.115C83.8587 20.1786 83.8417 20.253 83.8417 20.3381V21.5935H83.3551ZM87.666 21.6338C87.459 21.6338 87.2803 21.5908 87.1297 21.5048C86.9801 21.4179 86.8649 21.2951 86.7843 21.1365C86.7036 20.977 86.6633 20.7893 86.6633 20.5733C86.6633 20.3609 86.7036 20.1746 86.7843 20.0142C86.8658 19.8529 86.9796 19.7274 87.1257 19.6378C87.2718 19.5473 87.4434 19.5021 87.6405 19.5021C87.7677 19.5021 87.8878 19.5227 88.0007 19.5639C88.1145 19.6042 88.2149 19.6669 88.3018 19.7521C88.3896 19.8372 88.4586 19.9456 88.5088 20.0773C88.559 20.2082 88.5841 20.3641 88.5841 20.5451V20.6943H86.8918V20.3663H88.1177C88.1168 20.2731 88.0966 20.1902 88.0572 20.1177C88.0178 20.0442 87.9626 19.9864 87.8919 19.9443C87.822 19.9022 87.7404 19.8811 87.6472 19.8811C87.5478 19.8811 87.4604 19.9053 87.3851 19.9537C87.3098 20.0012 87.2512 20.0639 87.209 20.1419C87.1678 20.2189 87.1468 20.3036 87.1459 20.3959V20.6822C87.1459 20.8023 87.1678 20.9053 87.2117 20.9913C87.2556 21.0765 87.317 21.1419 87.3959 21.1876C87.4747 21.2324 87.567 21.2548 87.6728 21.2548C87.7435 21.2548 87.8076 21.2449 87.865 21.2252C87.9223 21.2046 87.9721 21.1746 88.0142 21.1352C88.0563 21.0957 88.0881 21.0469 88.1096 20.9887L88.5639 21.0397C88.5352 21.1598 88.4806 21.2646 88.3999 21.3543C88.3202 21.443 88.218 21.512 88.0935 21.5612C87.9689 21.6096 87.8264 21.6338 87.666 21.6338ZM90.0267 19.5289V19.9053H88.8398V19.5289H90.0267ZM89.1328 19.0343H89.6194V20.9725C89.6194 21.0379 89.6292 21.0881 89.649 21.1231C89.6696 21.1571 89.6964 21.1804 89.7296 21.193C89.7628 21.2055 89.7995 21.2118 89.8398 21.2118C89.8703 21.2118 89.8981 21.2095 89.9232 21.2051C89.9491 21.2006 89.9689 21.1965 89.9823 21.193L90.0643 21.5733C90.0383 21.5823 90.0011 21.5922 89.9527 21.6029C89.9052 21.6137 89.847 21.6199 89.778 21.6217C89.6561 21.6253 89.5464 21.6069 89.4487 21.5666C89.351 21.5254 89.2735 21.4618 89.2161 21.3758C89.1597 21.2897 89.1319 21.1822 89.1328 21.0532V19.0343Z" fill="black" fill-opacity="0.6"/>
<defs>
<filter id="filter0_d_35_13" x="-5.04673" y="0.635514" width="30.2805" height="30.2805" filterUnits="userSpaceOnUse" color-interpolation-filters="sRGB">
<feFlood flood-opacity="0" result="BackgroundImageFix"/>
<feColorMatrix in="SourceAlpha" type="matrix" values="0 0 0 0 0 0 0 0 0 0 0 0 0 0 0 0 0 0 127 0" result="hardAlpha"/>
<feOffset dy="1.68224"/>
<feGaussianBlur stdDeviation="2.52336"/>
<feComposite in2="hardAlpha" operator="out"/>
<feColorMatrix type="matrix" values="0 0 0 0 0.129412 0 0 0 0 0.533333 0 0 0 0 0.905882 0 0 0 0.3 0"/>
<feBlend mode="normal" in2="BackgroundImageFix" result="effect1_dropShadow_35_13"/>
<feBlend mode="normal" in="SourceGraphic" in2="effect1_dropShadow_35_13" result="shape"/>
</filter>
<filter id="filter1_d_35_13" x="8.41128" y="0.635514" width="30.2805" height="30.2805" filterUnits="userSpaceOnUse" color-interpolation-filters="sRGB">
<feFlood flood-opacity="0" result="BackgroundImageFix"/>
<feColorMatrix in="SourceAlpha" type="matrix" values="0 0 0 0 0 0 0 0 0 0 0 0 0 0 0 0 0 0 127 0" result="hardAlpha"/>
<feOffset dy="1.68224"/>
<feGaussianBlur stdDeviation="2.52336"/>
<feComposite in2="hardAlpha" operator="out"/>
<feColorMatrix type="matrix" values="0 0 0 0 0.129412 0 0 0 0 0.533333 0 0 0 0 0.905882 0 0 0 0.3 0"/>
<feBlend mode="normal" in2="BackgroundImageFix" result="effect1_dropShadow_35_13"/>
<feBlend mode="normal" in="SourceGraphic" in2="effect1_dropShadow_35_13" result="shape"/>
</filter>
</defs>
</svg>
