<svg width="151" height="27" viewBox="0 0 151 27" fill="none" xmlns="http://www.w3.org/2000/svg">
<path d="M54.9426 9.22514H45.7242V11.9433H52.2795C51.9517 15.7734 48.756 17.4619 45.7652 17.4619C41.9139 17.4619 38.5543 14.4143 38.5543 10.1724C38.5543 6.01279 41.75 2.80044 45.7652 2.80044C48.8789 2.80044 50.6816 4.77727 50.6816 4.77727L52.5663 2.80044C52.5663 2.80044 50.108 0.0822934 45.6422 0.0822934C39.9473 0.0411093 35.5635 4.85964 35.5635 10.09C35.5635 15.1968 39.7015 20.1801 45.8061 20.1801C51.1733 20.1801 55.1065 16.5147 55.1065 11.0372C55.1065 9.88409 54.9426 9.22514 54.9426 9.22514Z" fill="#5A7184"/>
<path fill-rule="evenodd" clip-rule="evenodd" d="M55.9668 13.6317C55.9668 10.1723 58.6709 7.20703 62.4402 7.20703C65.5539 7.20703 68.9135 9.43097 68.9545 13.7141C68.9545 17.503 66.0865 20.18 62.5221 20.18C58.5889 20.18 55.9668 17.1736 55.9668 13.6317ZM66.0865 13.7141C66.0865 11.3254 64.3248 9.80162 62.4811 9.80162C60.3916 9.80162 58.7938 11.449 58.8347 13.6729C58.8347 15.9792 60.4326 17.6266 62.4811 17.6266C64.3658 17.6266 66.0865 16.1028 66.0865 13.7141Z" fill="#5A7184"/>
<path fill-rule="evenodd" clip-rule="evenodd" d="M70.0608 13.6317C70.0608 10.1723 72.7649 7.20703 76.5341 7.20703C79.6479 7.20703 83.0075 9.43097 83.0485 13.7141C83.0485 17.503 80.1805 20.18 76.6161 20.18C72.6829 20.18 70.0608 17.1736 70.0608 13.6317ZM80.1805 13.7141C80.1805 11.3254 78.4188 9.80162 76.5751 9.80162C74.4856 9.80162 72.8878 11.449 72.9287 13.6729C72.9287 15.9792 74.5266 17.6266 76.5751 17.6266C78.4598 17.6266 80.1805 16.1028 80.1805 13.7141Z" fill="#5A7184"/>
<path fill-rule="evenodd" clip-rule="evenodd" d="M84.1545 13.7142C84.1545 10.2959 86.8586 7.24829 90.3411 7.24829C91.857 7.24829 93.0042 7.82487 93.7417 8.73092V7.61895H96.4457V19.274C96.4457 23.8454 93.8236 26.0282 90.3821 26.0282C87.2273 26.0282 85.4656 24.0925 84.6052 22.2393L87.1044 21.2097C87.4732 22.0333 88.4565 23.516 90.423 23.516C92.4716 23.516 93.8236 22.1569 93.8236 19.933V18.6563C93.0452 19.5211 92.1028 20.2213 90.2592 20.2213C87.3093 20.2213 84.1545 17.5855 84.1545 13.7142ZM94.0285 13.7554C94.0285 11.2843 92.2667 9.8017 90.5869 9.8017C88.7842 9.8017 87.0225 11.2431 86.9815 13.7965C86.9815 16.144 88.7023 17.6678 90.546 17.6678C92.3077 17.6678 94.0285 16.3088 94.0285 13.7554Z" fill="#5A7184"/>
<path fill-rule="evenodd" clip-rule="evenodd" d="M102.551 13.6729C102.551 9.80162 105.296 7.20703 108.573 7.20703C111.113 7.20703 113.039 8.93676 113.899 10.9136L114.35 11.9844L105.705 15.6086C106.238 16.597 107.057 17.5854 108.86 17.5854C110.458 17.5854 111.441 16.7205 112.015 15.8145L114.268 17.3383C113.285 18.6562 111.564 20.18 108.86 20.18C105.623 20.18 102.551 17.7501 102.551 13.6729ZM111.072 11.1195C110.663 10.337 109.843 9.71926 108.655 9.71926C106.811 9.71926 105.009 11.6549 105.337 13.5494L111.072 11.1195Z" fill="#5A7184"/>
<path d="M98.4534 19.8093H101.28V0.699951H98.4534V19.8093Z" fill="#5A7184"/>
</svg>
