<svg width="151" height="27" viewBox="0 0 151 27" fill="none" xmlns="http://www.w3.org/2000/svg">
<path fill-rule="evenodd" clip-rule="evenodd" d="M57.7086 17.225C57.8266 17.4995 57.9447 17.8133 58.0627 18.1271C58.4167 19.0292 58.4954 19.8921 58.3774 20.755C58.102 22.5593 56.9218 24.1282 55.1909 24.8342C54.5614 25.1088 53.8927 25.2264 53.1845 25.2264C52.9878 25.2264 52.7518 25.2264 52.5551 25.1872C51.729 25.1088 50.9028 24.8342 50.0767 24.3635C49.0932 23.8144 48.1097 22.9907 47.0082 21.8141C45.9066 22.9907 44.9625 23.8144 43.9396 24.3635C43.1135 24.8342 42.2874 25.0696 41.4612 25.1872C41.3629 25.1872 41.2547 25.197 41.1465 25.2068C41.0383 25.2166 40.9301 25.2264 40.8318 25.2264C40.1237 25.2264 39.4549 25.1088 38.8255 24.8342C37.1338 24.1282 35.875 22.5985 35.5996 20.755C35.4816 19.8529 35.5996 18.99 35.9143 18.1271C36.0323 17.7741 36.1503 17.4996 36.2683 17.225L36.2684 17.225C36.4651 16.7935 36.6618 16.3621 36.8191 15.9699L36.8585 15.9306C38.5894 12.2437 40.3991 8.51751 42.2874 4.83056L42.366 4.67367C42.5627 4.32066 42.7594 3.92843 42.9561 3.5362C43.0091 3.45325 43.062 3.36884 43.1156 3.28354L43.1156 3.2834L43.1156 3.28339L43.1157 3.28338C43.3404 2.92509 43.575 2.55107 43.861 2.20263C44.6871 1.26128 45.7886 0.712158 47.0082 0.712158C48.1884 0.712158 49.3292 1.26128 50.116 2.24185C50.5094 2.6733 50.7848 3.14398 51.0208 3.57543L51.0209 3.57549C51.2176 3.9677 51.4142 4.3599 51.6109 4.71289L51.6896 4.86978C53.6173 8.55673 55.4269 12.2829 57.1185 15.9699H57.1579C57.3152 16.3621 57.5119 16.7935 57.7086 17.225ZM77.0639 6.87015C77.0639 7.77227 76.3558 8.47828 75.4509 8.47828C74.5461 8.47828 73.838 7.77227 73.838 6.87015C73.838 5.96802 74.5461 5.26201 75.4509 5.26201C76.3951 5.30123 77.0639 6.00724 77.0639 6.87015ZM70.4941 10.0864V10.4787C70.4941 10.4787 69.7467 9.49808 68.0944 9.49808C65.4193 9.49808 63.3342 11.5377 63.3342 14.3617C63.3342 17.1465 65.4193 19.2253 68.0944 19.2253C69.7467 19.2253 70.4941 18.2056 70.4941 18.2056V18.637C70.4941 18.8331 70.6515 18.99 70.8482 18.99H72.8545V9.73342H70.8482C70.6121 9.73342 70.4941 9.89031 70.4941 10.0864ZM68.4878 16.9896C69.3926 16.9896 70.1401 16.519 70.4941 15.9699V12.6751C70.1401 12.1652 69.3533 11.6553 68.4878 11.6553C66.9142 11.6553 65.6946 12.6359 65.6946 14.3225C65.6946 16.0091 66.9142 16.9896 68.4878 16.9896ZM76.6311 9.73342V18.9508H74.2707V9.73342H76.6311ZM107.159 10.4787C107.159 10.4787 107.946 9.49808 109.559 9.49808C112.234 9.49808 114.319 11.5377 114.319 14.3225C114.319 17.1073 112.234 19.1861 109.559 19.1861C107.906 19.1861 107.159 18.1663 107.159 18.1663V18.5978C107.159 18.7939 107.002 18.9508 106.805 18.9508H104.799V5.30123H107.159V10.4787ZM109.165 16.9504C108.26 16.9504 107.552 16.4797 107.159 15.9306V12.6359C107.513 12.126 108.3 11.6161 109.165 11.6161C110.739 11.6161 111.958 12.5967 111.958 14.2833C111.958 15.9699 110.739 16.9504 109.165 16.9504ZM103.579 18.99V13.4988C103.579 11.9299 103.264 11.067 102.477 10.4002C101.769 9.81186 100.904 9.49808 99.8811 9.49808C98.9762 9.49808 98.0714 9.77264 97.3633 10.4787V10.0864C97.3633 9.89031 97.2059 9.73342 97.0092 9.73342H95.1209V18.99H97.4813V12.5575C97.9534 12.0083 98.7008 11.6553 99.409 11.6553C100.707 11.6553 101.219 12.2437 101.219 13.7734V18.99H103.579ZM89.3773 9.49808C87.7643 9.49808 86.9775 10.4787 86.9775 10.4787V5.30123H84.6171V18.9508H86.6235C86.8202 18.9508 86.9775 18.7939 86.9775 18.5978V18.1663C86.9775 18.1663 87.725 19.1861 89.3773 19.1861C92.0524 19.1861 94.1374 17.1073 94.1374 14.3225C94.1768 11.5377 92.0917 9.49808 89.3773 9.49808ZM86.9775 15.9306C87.3709 16.4797 88.0791 16.9504 88.9839 16.9504C90.5575 16.9504 91.777 15.9699 91.777 14.2833C91.777 12.5967 90.5575 11.6161 88.9839 11.6161C88.1184 11.6161 87.3316 12.126 86.9775 12.6359V15.9306ZM82.6108 9.49808C83.3189 9.49808 83.7123 9.61575 83.7123 9.61575V11.8122C83.7123 11.8122 81.7453 11.1454 80.5258 12.5575V18.99H78.1654V9.73342H80.1717C80.3684 9.73342 80.5258 9.89031 80.5258 10.0864V10.4787C80.9192 9.96875 81.8634 9.49808 82.6108 9.49808ZM46.9688 19.3822C45.6313 17.6957 44.7658 16.1267 44.4904 14.8324C44.3724 14.2833 44.333 13.7734 44.4117 13.3419C44.4511 12.9497 44.6084 12.5967 44.8051 12.3221C45.2772 11.6553 46.064 11.2239 46.9688 11.2239C47.8736 11.2239 48.6998 11.6161 49.1325 12.3221C49.3292 12.6359 49.4866 12.9497 49.5259 13.3419C49.6046 13.7734 49.5653 14.2833 49.4472 14.8324C49.1719 16.1267 48.3064 17.6957 46.9688 19.3822ZM54.5614 23.4222C55.781 22.9515 56.6465 21.8533 56.8038 20.5589C56.8825 19.8921 56.8038 19.3038 56.6858 18.6762C56.6432 18.5488 56.5891 18.4214 56.5297 18.2816C56.4793 18.1631 56.4252 18.0357 56.3711 17.8918C56.2727 17.6957 56.1842 17.4897 56.0957 17.2838C56.0072 17.0779 55.9187 16.872 55.8203 16.6759V16.6366C54.1287 12.9889 52.3191 9.26274 50.4307 5.61502L50.3521 5.45812L50.352 5.45807C50.1553 5.06586 49.9587 4.67365 49.762 4.32066C49.5653 3.92843 49.3292 3.5362 49.0538 3.22242C48.5424 2.63408 47.8343 2.3203 47.0868 2.3203C46.3394 2.3203 45.6313 2.63408 45.1198 3.22242C44.8445 3.57543 44.6084 3.92843 44.4117 4.32066C44.215 4.71289 44.0183 5.10512 43.8216 5.45812L43.7429 5.61502C41.8153 9.26274 40.0057 12.9889 38.314 16.6366L38.2747 16.6759C38.078 17.0681 37.8813 17.4995 37.7239 17.8918L37.7239 17.8918C37.6059 18.1664 37.4879 18.4409 37.4092 18.6762C37.1338 19.3822 37.0945 19.9706 37.1732 20.5981C37.3305 21.8533 38.196 22.9515 39.4156 23.4614C39.9663 23.6575 40.5958 23.7752 41.2645 23.6968C41.894 23.6183 42.5234 23.4222 43.1528 23.0692C44.0183 22.5593 44.9231 21.8141 45.946 20.6766C44.333 18.6762 43.3102 16.8328 42.9561 15.2246C42.7594 14.4794 42.7201 13.7734 42.8381 13.1458C42.9561 12.5182 43.1528 11.9691 43.5069 11.4592C44.2544 10.4002 45.5526 9.73342 46.9688 9.73342C48.3851 9.73342 49.6833 10.361 50.4307 11.4592C50.7848 11.9691 50.9815 12.5182 51.0995 13.1458C51.1782 13.7734 51.1389 14.4794 50.9815 15.2246C50.5881 16.8328 49.6046 18.637 47.9917 20.6374C49.0145 21.7748 49.88 22.5201 50.7848 23.03C51.4536 23.383 52.0437 23.5791 52.6731 23.6575C53.3419 23.736 53.9713 23.6575 54.5614 23.4222Z" fill="#5A7184"/>
</svg>
