<svg width="151" height="27" viewBox="0 0 151 27" fill="none" xmlns="http://www.w3.org/2000/svg">
<path fill-rule="evenodd" clip-rule="evenodd" d="M44.3443 22.5908L44.3442 22.5908C43.8891 22.6375 43.4271 22.6848 42.954 22.7431L39.1585 11.7626V23.2103C37.9724 23.3271 36.9049 23.4829 35.7583 23.6776V2.69019H38.9212L43.2307 14.6051V2.69019H46.5913V22.3147C45.8488 22.4366 45.1063 22.5127 44.3444 22.5908L44.3443 22.5908L44.3443 22.5908L44.3443 22.5908ZM53.1544 10.3998C53.8223 10.3998 54.6663 10.3794 55.4903 10.3595C56.2758 10.3405 57.0431 10.322 57.6221 10.322V13.5927C56.1592 13.5927 54.4196 13.5927 53.1544 13.6706V18.5378C53.7706 18.5006 54.3907 18.4595 55.0136 18.4183C56.3492 18.3298 57.6973 18.2405 59.0454 18.1874V21.3413L49.8333 22.0422V2.69019H59.0454V5.96094H53.1544V10.3998ZM67.9411 5.99988H71.3808C71.3808 5.99988 71.3808 2.69019 71.4204 2.69019H61.1804V5.99988H64.6201V21.1077C65.6875 21.0687 66.834 21.0687 67.941 21.0687H67.9411V5.99988ZM76.7973 10.1662H81.3441V13.437H76.7973V20.874H73.5158V2.69019H82.8069V5.96094H76.7973V10.1662ZM91.6712 18.1492C90.5278 18.083 89.3756 18.0163 88.2234 17.9927V2.69019H84.9023V21.0687C87.9467 21.1466 90.9119 21.3024 93.8772 21.497V18.2652C93.1471 18.2346 92.411 18.192 91.6712 18.1492ZM96.6843 21.7307C97.0542 21.7577 97.4288 21.78 97.8065 21.8025L97.8067 21.8025C98.519 21.8449 99.2424 21.888 99.9658 21.9643V2.69019H96.6843V21.7307ZM110.285 12.6582L114.515 2.69019H110.838L108.506 8.18039L106.331 2.69019H102.773L106.648 12.5414L102.378 22.1201C102.852 22.1824 103.326 22.2322 103.801 22.282C104.513 22.3568 105.224 22.4315 105.936 22.5484L108.387 16.9803L110.759 23.0546C111.202 23.1227 111.641 23.1957 112.077 23.2684C112.888 23.4033 113.693 23.5374 114.515 23.6386L110.285 12.6582Z" fill="#5A7184"/>
</svg>
