<svg width="151" height="27" viewBox="0 0 151 27" fill="none" xmlns="http://www.w3.org/2000/svg">
<path fill-rule="evenodd" clip-rule="evenodd" d="M47.0262 4.68323C47.0262 5.49914 46.3145 6.19849 45.4843 6.19849C44.654 6.19849 43.9423 5.49914 43.9423 4.68323C43.9423 3.86732 44.654 3.16797 45.4843 3.16797C46.3145 3.16797 47.0262 3.86732 47.0262 4.68323ZM45.4843 7.44178C44.5749 7.44178 43.8633 8.14113 43.8633 9.03475C43.8633 9.92836 44.5749 10.6277 45.4843 10.6277C46.3936 10.6277 47.1053 9.92836 47.1053 9.03475C47.1053 8.10228 46.3936 7.44178 45.4843 7.44178ZM43.8237 13.3086C43.8237 12.4149 44.5749 11.6767 45.4843 11.6767C46.3936 11.6767 47.1843 12.4149 47.1448 13.3086C47.1448 14.2022 46.3936 14.9404 45.4843 14.9404C44.5749 14.9404 43.8237 14.2022 43.8237 13.3086ZM45.4843 15.9894C44.5749 15.9894 43.8633 16.6888 43.8633 17.5824C43.8633 18.476 44.5749 19.1753 45.4843 19.1753C46.3936 19.1753 47.1053 18.476 47.1053 17.5824C47.1053 16.7276 46.3936 15.9894 45.4843 15.9894ZM43.9423 21.895C43.9423 21.0791 44.654 20.3798 45.4843 20.3798C46.3541 20.3798 47.0262 21.0791 47.0262 21.895C47.0262 22.7109 46.3145 23.4103 45.4843 23.4103C44.654 23.4103 43.9423 22.7109 43.9423 21.895ZM49.7542 7.24752C48.7658 7.24752 47.9355 8.06343 47.9355 9.03475C47.9355 10.0061 48.7658 10.822 49.7542 10.822C50.7426 10.822 51.5729 10.0061 51.5729 9.03475C51.5729 8.06343 50.7426 7.24752 49.7542 7.24752ZM47.8565 13.3474C47.8565 12.2984 48.7263 11.4825 49.7542 11.4825C50.7822 11.4825 51.652 12.2984 51.652 13.3474C51.652 14.3964 50.7822 15.2123 49.7542 15.2123C48.6867 15.2123 47.8565 14.3576 47.8565 13.3474ZM49.7542 15.7951C48.7658 15.7951 47.9355 16.611 47.9355 17.5824C47.9355 18.5537 48.7658 19.3696 49.7542 19.3696C50.7426 19.3696 51.5729 18.5537 51.5729 17.5824C51.5729 16.611 50.7426 15.7951 49.7542 15.7951ZM52.0473 13.3086C52.0473 12.143 53.0358 11.2494 54.1428 11.2494C55.2498 11.2494 56.1592 12.143 56.2382 13.3086C56.2382 14.4741 55.3289 15.3678 54.1428 15.3678C52.9567 15.3678 52.0473 14.3964 52.0473 13.3086ZM41.1748 7.63604C40.4236 7.63604 39.791 8.25769 39.791 8.99589C39.791 9.7341 40.4236 10.3557 41.1748 10.3557C41.926 10.3557 42.5585 9.7341 42.5585 8.99589C42.5585 8.25769 41.9655 7.63604 41.1748 7.63604ZM39.7119 13.3086C39.7119 12.4926 40.3445 11.871 41.1748 11.871C42.005 11.871 42.6376 12.4926 42.6376 13.3086C42.6376 14.1245 42.005 14.7461 41.1748 14.7461C40.3445 14.7461 39.7119 14.1245 39.7119 13.3086ZM41.1748 16.1837C40.4236 16.1837 39.791 16.8053 39.791 17.5435C39.791 18.2817 40.4236 18.9034 41.1748 18.9034C41.926 18.9034 42.5585 18.2817 42.5585 17.5435C42.5585 16.8053 41.9655 16.1837 41.1748 16.1837ZM35.6001 13.3474C35.6001 12.6481 36.1536 12.1041 36.8653 12.1041C37.5769 12.1041 38.1304 12.6481 38.1304 13.3474C38.1304 14.0468 37.5769 14.5907 36.8653 14.5907C36.1536 14.5907 35.6001 14.0468 35.6001 13.3474Z" fill="#5A7184"/>
<path d="M71.9738 10.6665C71.8156 10.6665 71.697 10.8219 71.697 10.9385V21.7007C71.697 21.8561 71.8552 21.9727 71.9738 21.9727H73.2785C73.4366 21.9727 73.5552 21.8173 73.5552 21.7007V10.9385C73.5552 10.7831 73.3971 10.6665 73.2785 10.6665H71.9738Z" fill="#5A7184"/>
<path d="M72.6853 6.12061C71.9737 6.12061 71.4202 6.66455 71.4202 7.3639C71.4202 8.06325 71.9737 8.60719 72.6853 8.60719C73.397 8.60719 73.9505 8.06325 73.9505 7.3639C73.9505 6.66455 73.3575 6.12061 72.6853 6.12061Z" fill="#5A7184"/>
<path d="M100.045 10.6665C99.8867 10.6665 99.7681 10.8219 99.7681 10.9385V21.7007C99.7681 21.8561 99.9262 21.9727 100.045 21.9727H101.35C101.508 21.9727 101.626 21.8173 101.626 21.7007V10.9385C101.626 10.7831 101.468 10.6665 101.35 10.6665H100.045Z" fill="#5A7184"/>
<path d="M100.677 6.12061C99.9656 6.12061 99.4121 6.66455 99.4121 7.3639C99.4121 8.06325 99.9656 8.60719 100.677 8.60719C101.389 8.60719 101.942 8.06325 101.942 7.3639C101.942 6.66455 101.389 6.12061 100.677 6.12061Z" fill="#5A7184"/>
<path fill-rule="evenodd" clip-rule="evenodd" d="M114.027 20.7942C114.019 20.832 113.999 20.8777 113.95 20.9235C113.95 21.0012 113.868 21.0789 113.703 21.04L113.766 21.1127C113.758 21.1159 113.751 21.1177 113.744 21.1177H113.621L113.909 21.4674H114.074L113.766 21.1127C113.78 21.1075 113.796 21.0986 113.814 21.0888C113.854 21.0667 113.902 21.04 113.95 21.04C114.032 21.04 114.032 20.9623 114.032 20.8846C114.032 20.8527 114.032 20.8207 114.027 20.7942ZM113.456 21.1177V21.0012V20.6515H113.744C113.827 20.6515 113.909 20.6515 113.95 20.7292C113.999 20.7292 114.019 20.7561 114.027 20.7942C114.032 20.7677 114.032 20.7452 114.032 20.7292V20.6515C114.032 20.6515 114.032 20.5738 113.95 20.5738C113.95 20.5738 113.868 20.4961 113.785 20.4961H113.621H113.25V21.4674H113.415V21.1177H113.456Z" fill="#5A7184"/>
<path fill-rule="evenodd" clip-rule="evenodd" d="M112.736 21.0013C112.736 20.535 113.171 20.1077 113.645 20.1077C114.159 20.1077 114.555 20.4962 114.555 21.0013C114.555 21.4675 114.12 21.8949 113.645 21.8949C113.171 21.8949 112.736 21.4675 112.736 21.0013ZM112.815 21.0013C112.815 21.4675 113.171 21.8172 113.645 21.8172C114.08 21.8172 114.476 21.4675 114.476 21.0013C114.476 20.535 114.12 20.1854 113.645 20.1854C113.171 20.1854 112.815 20.535 112.815 21.0013Z" fill="#8C98A4"/>
<path d="M82.8464 12.4147C83.0045 12.4147 83.1231 12.2593 83.1231 12.1427V10.8606C83.1231 10.7052 82.965 10.5886 82.8464 10.5886H80.0393V6.47021C80.0393 6.3148 79.8811 6.19824 79.7625 6.19824H78.4578C78.2997 6.19824 78.181 6.35365 78.181 6.47021V10.5886H76.7973C76.6391 10.5886 76.5205 10.744 76.5205 10.8606V12.1427C76.5205 12.2981 76.6787 12.4147 76.7973 12.4147H78.181V18.6311C78.181 20.5349 79.4858 21.7782 81.3835 21.7782H82.7673C82.9254 21.7782 83.0441 21.6228 83.0441 21.5063V20.2241C83.0441 20.0687 82.8859 19.9521 82.7673 19.9521H81.5812C80.6719 19.9521 80.0393 19.3305 80.0393 18.3592V12.3758H82.8464V12.4147Z" fill="#5A7184"/>
<path d="M110.601 12.4147C110.759 12.4147 110.878 12.2593 110.878 12.1427V10.8606C110.878 10.7052 110.72 10.5886 110.601 10.5886H107.794V6.47021C107.794 6.3148 107.636 6.19824 107.517 6.19824H106.212C106.054 6.19824 105.936 6.35365 105.936 6.47021V10.5886H104.552C104.394 10.5886 104.275 10.744 104.275 10.8606V12.1427C104.275 12.2981 104.433 12.4147 104.552 12.4147H105.936V18.6311C105.936 20.5349 107.24 21.7782 109.138 21.7782H110.522C110.68 21.7782 110.799 21.6228 110.799 21.5063V20.2241C110.799 20.0687 110.641 19.9521 110.522 19.9521H109.257C108.347 19.9521 107.715 19.3305 107.715 18.3592V12.3758H110.561L110.601 12.4147Z" fill="#5A7184"/>
<path d="M63.671 12.4148V21.5841C63.671 21.7395 63.8292 21.856 63.9478 21.856H65.2525C65.4106 21.856 65.5293 21.7006 65.5293 21.5841V12.4148H68.6131C68.7713 12.4148 68.8899 12.2594 68.8899 12.1428V10.8607C68.8899 10.7053 68.7317 10.5887 68.6131 10.5887H65.5293V8.17983C65.5293 7.20851 66.2409 6.54801 67.0712 6.54801H68.6131C68.7713 6.54801 68.8899 6.3926 68.8899 6.27604V4.99389C68.8899 4.83848 68.7317 4.72192 68.6131 4.72192H67.1503C65.213 4.72192 63.671 6.31489 63.671 8.14097V10.5887H62.2873C62.1291 10.5887 62.0105 10.7441 62.0105 10.8607V12.1428C62.0105 12.2982 62.1686 12.4148 62.2873 12.4148H63.671Z" fill="#5A7184"/>
<path fill-rule="evenodd" clip-rule="evenodd" d="M91.5839 10.2391C93.1258 10.2391 94.5887 10.8607 95.6166 11.9486C96.6446 13.0365 97.1981 14.5518 97.1981 16.2224C97.1981 20.3797 94.3119 22.2446 91.5444 22.2446C88.7373 22.2446 85.8906 20.4185 85.8906 16.2224V4.91626C85.8906 4.7997 86.0092 4.64429 86.1674 4.64429H87.4721C87.5907 4.64429 87.7488 4.76085 87.7488 4.91626V11.7544C88.6582 10.8607 90.121 10.2391 91.5839 10.2391ZM87.7093 16.2613C87.7093 18.3205 88.7373 20.4962 91.5444 20.4962C94.3515 20.4962 95.3399 18.3205 95.3794 16.2613C95.3794 13.7747 93.8375 12.0652 91.5444 12.0652C89.2512 12.0652 87.7093 13.7359 87.7093 16.2613Z" fill="#5A7184"/>
</svg>
