<svg width="140" height="123" viewBox="0 0 140 123" fill="none" xmlns="http://www.w3.org/2000/svg">
<path d="M126.875 61.25H105V43.75C105 34.1797 112.656 26.25 122.5 26.25H124.688C128.242 26.25 131.25 23.5156 131.25 19.6875V6.5625C131.25 3.00781 128.242 0 124.688 0H122.5C98.1641 0 78.75 19.6875 78.75 43.75V109.375C78.75 116.758 84.4922 122.5 91.875 122.5H126.875C133.984 122.5 140 116.758 140 109.375V74.375C140 67.2656 133.984 61.25 126.875 61.25ZM48.125 61.25H26.25V43.75C26.25 34.1797 33.9062 26.25 43.75 26.25H45.9375C49.4922 26.25 52.5 23.5156 52.5 19.6875V6.5625C52.5 3.00781 49.4922 0 45.9375 0H43.75C19.4141 0 0 19.6875 0 43.75V109.375C0 116.758 5.74219 122.5 13.125 122.5H48.125C55.2344 122.5 61.25 116.758 61.25 109.375V74.375C61.25 67.2656 55.2344 61.25 48.125 61.25Z" fill="#3CB582"/>
</svg>
