<svg width="16" height="13" viewBox="0 0 16 13" fill="none" xmlns="http://www.w3.org/2000/svg">
<path d="M14.3438 3.21875C14.3438 3.375 14.3438 3.5 14.3438 3.65625C14.3438 8 11.0625 12.9688 5.03125 12.9688C3.15625 12.9688 1.4375 12.4375 0 11.5C0.25 11.5312 0.5 11.5625 0.78125 11.5625C2.3125 11.5625 3.71875 11.0312 4.84375 10.1562C3.40625 10.125 2.1875 9.1875 1.78125 7.875C2 7.90625 2.1875 7.9375 2.40625 7.9375C2.6875 7.9375 3 7.875 3.25 7.8125C1.75 7.5 0.625 6.1875 0.625 4.59375V4.5625C1.0625 4.8125 1.59375 4.9375 2.125 4.96875C1.21875 4.375 0.65625 3.375 0.65625 2.25C0.65625 1.625 0.8125 1.0625 1.09375 0.59375C2.71875 2.5625 5.15625 3.875 7.875 4.03125C7.8125 3.78125 7.78125 3.53125 7.78125 3.28125C7.78125 1.46875 9.25 0 11.0625 0C12 0 12.8438 0.375 13.4688 1.03125C14.1875 0.875 14.9062 0.59375 15.5312 0.21875C15.2812 1 14.7812 1.625 14.0938 2.03125C14.75 1.96875 15.4062 1.78125 15.9688 1.53125C15.5312 2.1875 14.9688 2.75 14.3438 3.21875Z" fill="#5A7184"/>
</svg>
