<svg width="15" height="15" viewBox="0 0 15 15" fill="none" xmlns="http://www.w3.org/2000/svg">
<path d="M7.03125 3.40625C9 3.40625 10.625 5.03125 10.625 7C10.625 9 9 10.5938 7.03125 10.5938C5.03125 10.5938 3.4375 9 3.4375 7C3.4375 5.03125 5.03125 3.40625 7.03125 3.40625ZM7.03125 9.34375C8.3125 9.34375 9.34375 8.3125 9.34375 7C9.34375 5.71875 8.3125 4.6875 7.03125 4.6875C5.71875 4.6875 4.6875 5.71875 4.6875 7C4.6875 8.3125 5.75 9.34375 7.03125 9.34375ZM11.5938 3.28125C11.5938 3.75 11.2188 4.125 10.75 4.125C10.2812 4.125 9.90625 3.75 9.90625 3.28125C9.90625 2.8125 10.2812 2.4375 10.75 2.4375C11.2188 2.4375 11.5938 2.8125 11.5938 3.28125ZM13.9688 4.125C14.0312 5.28125 14.0312 8.75 13.9688 9.90625C13.9062 11.0312 13.6562 12 12.8438 12.8438C12.0312 13.6562 11.0312 13.9062 9.90625 13.9688C8.75 14.0312 5.28125 14.0312 4.125 13.9688C3 13.9062 2.03125 13.6562 1.1875 12.8438C0.375 12 0.125 11.0312 0.0625 9.90625C0 8.75 0 5.28125 0.0625 4.125C0.125 3 0.375 2 1.1875 1.1875C2.03125 0.375 3 0.125 4.125 0.0625C5.28125 0 8.75 0 9.90625 0.0625C11.0312 0.125 12.0312 0.375 12.8438 1.1875C13.6562 2 13.9062 3 13.9688 4.125ZM12.4688 11.125C12.8438 10.2188 12.75 8.03125 12.75 7C12.75 6 12.8438 3.8125 12.4688 2.875C12.2188 2.28125 11.75 1.78125 11.1562 1.5625C10.2188 1.1875 8.03125 1.28125 7.03125 1.28125C6 1.28125 3.8125 1.1875 2.90625 1.5625C2.28125 1.8125 1.8125 2.28125 1.5625 2.875C1.1875 3.8125 1.28125 6 1.28125 7C1.28125 8.03125 1.1875 10.2188 1.5625 11.125C1.8125 11.75 2.28125 12.2188 2.90625 12.4688C3.8125 12.8438 6 12.75 7.03125 12.75C8.03125 12.75 10.2188 12.8438 11.1562 12.4688C11.75 12.2188 12.25 11.75 12.4688 11.125Z" fill="#5A7184"/>
</svg>
